<svg width="40" height="40" viewBox="0 0 40 40" fill="none" xmlns="http://www.w3.org/2000/svg">
<path d="M2.74288 29.3371C2.96978 31.3471 3.87091 33.2208 5.29935 34.6529C6.72779 36.085 8.59926 36.9909 10.6086 37.2229C13.6657 37.5657 16.8 37.8571 20 37.8571C23.2 37.8571 26.3372 37.5657 29.3915 37.2229C31.4008 36.9909 33.2723 36.085 34.7007 34.6529C36.1291 33.2208 37.0303 31.3471 37.2572 29.3371C37.5829 26.3 37.8572 23.18 37.8572 20C37.8572 16.82 37.5829 13.7 37.2572 10.66C37.0303 8.65008 36.1291 6.77631 34.7007 5.34424C33.2723 3.91217 31.4008 3.00628 29.3915 2.77428C26.3343 2.43714 23.2 2.14285 20 2.14285C16.8 2.14285 13.6629 2.43428 10.6086 2.77714C8.59926 3.00914 6.72779 3.91503 5.29935 5.3471C3.87091 6.77917 2.96978 8.65293 2.74288 10.6629C2.41717 13.6971 2.14288 16.8171 2.14288 20C2.14288 23.1829 2.41717 26.3 2.74288 29.3371Z" fill="#F2F7BA"/>
<path d="M2.74288 29.3371C2.96978 31.3471 3.87091 33.2208 5.29935 34.6529C6.72779 36.085 8.59926 36.9909 10.6086 37.2229C13.6657 37.5657 16.8 37.8571 20 37.8571C23.2 37.8571 26.3372 37.5657 29.3915 37.2229C31.4008 36.9909 33.2723 36.085 34.7007 34.6529C36.1291 33.2208 37.0303 31.3471 37.2572 29.3371C37.5829 26.3 37.8572 23.18 37.8572 20C37.8572 16.82 37.5829 13.7 37.2572 10.66C37.0303 8.65008 36.1291 6.77631 34.7007 5.34424C33.2723 3.91217 31.4008 3.00628 29.3915 2.77428C26.3343 2.43714 23.2 2.14285 20 2.14285C16.8 2.14285 13.6629 2.43428 10.6086 2.77714C8.59926 3.00914 6.72779 3.91503 5.29935 5.3471C3.87091 6.77917 2.96978 8.65293 2.74288 10.6629C2.41717 13.6971 2.14288 16.8171 2.14288 20C2.14288 23.1829 2.41717 26.3 2.74288 29.3371Z" stroke="#667000" stroke-width="2.85714" stroke-linecap="round" stroke-linejoin="round"/>
<path d="M28.5715 28.5714L25.1772 25.18" stroke="#667000" stroke-width="2.85714" stroke-linecap="round" stroke-linejoin="round"/>
<path d="M19.2857 27.1428C24.3143 27.1428 27.1429 24.3143 27.1429 19.2857C27.1429 14.2571 24.3143 11.4286 19.2857 11.4286C14.2572 11.4286 11.4286 14.2571 11.4286 19.2857C11.4286 24.3143 14.2572 27.1428 19.2857 27.1428Z" fill="white"/>
<path d="M19.2857 27.1428C24.3143 27.1428 27.1429 24.3143 27.1429 19.2857C27.1429 14.2571 24.3143 11.4286 19.2857 11.4286C14.2572 11.4286 11.4286 14.2571 11.4286 19.2857C11.4286 24.3143 14.2572 27.1428 19.2857 27.1428Z" stroke="#667000" stroke-width="2.85714" stroke-linecap="round" stroke-linejoin="round"/>
</svg>
