<svg width="202" height="48" viewBox="0 0 202 48" fill="none" xmlns="http://www.w3.org/2000/svg">
<g clip-path="url(#clip0_2_6557)">
<path d="M195.737 10.5423L186.294 29.932L176.803 10.5423H167.552V0.103668L162.27 2.66408V10.5423H157.647V15.1344H162.27V26.2572C162.27 30.0667 162.358 32.5183 163.613 34.4723C164.857 36.4159 167.059 37.4007 170.174 37.4007C171.429 37.4007 172.424 37.2452 173.595 37.0431L174.44 36.898V32.2695L173.284 32.425C172.574 32.5183 171.931 32.565 171.258 32.565C167.738 32.565 167.557 30.7924 167.557 25.6715V15.1396H173.155L184.153 36.8669H188.403L201.723 10.5423H195.742H195.737Z" fill="#BFD000"/>
<path d="M59.8743 10.392V25.8892L59.8639 26.138C59.781 27.7707 59.7343 28.6673 57.9203 30.0201C55.619 31.7564 51.6488 32.368 48.9484 32.368C44.0764 32.368 42.2572 30.6524 41.8114 30.1237C40.4794 28.5377 40.4794 26.3401 40.4794 24.7334V10.392H35.1979V24.5935C35.2186 24.723 35.2186 24.9926 35.2186 25.2776C35.2238 27.6981 35.2445 34.1199 42.0913 36.3693C44.1541 37.0586 46.445 37.4059 48.9018 37.4059C54.5202 37.4059 57.8892 35.7577 59.8794 34.3531V36.7684H65.1143V10.392H59.8794H59.8743Z" fill="#592C5F"/>
<path d="M94.4606 21.7065C93.5535 21.3904 92.1023 20.9913 88.8992 20.7166C87.4376 20.5973 85.95 20.53 84.504 20.4678C83.5503 20.4263 82.5604 20.3797 81.6015 20.3226C78.4502 20.1309 77.5069 19.9806 76.8901 19.3327C76.5843 18.9906 76.4133 18.5345 76.4133 18.0473C76.4133 17.4772 76.6465 16.6531 77.7712 15.9482C79.0307 15.1189 81.4097 14.642 84.2915 14.642C86.8934 14.642 90.3142 15.0515 92.1127 16.2125C92.8642 16.679 93.113 17.1817 93.3359 17.6223L93.709 18.3686L99.3637 17.2076L98.7729 16.0207C98.3012 15.0774 97.3216 13.1234 94.642 11.6411C91.4803 10.0032 86.8934 9.75446 84.4418 9.75446C82.4774 9.75446 79.6216 9.91513 77.17 10.6822C74.7806 11.3975 72.9614 12.771 71.904 14.6472L71.8885 14.6731C71.308 15.7875 70.9867 17.1092 70.9867 18.3894C70.9867 21.2919 72.6297 23.6398 75.4959 24.8371L75.527 24.8474C77.4447 25.5731 79.6993 25.6923 83.1564 25.7959C85.1104 25.8996 86.8726 25.9929 88.6971 26.138C91.3352 26.3142 92.7295 26.5164 93.4758 27.1902C94.0304 27.7085 94.0874 28.3201 94.0874 28.5585C94.0874 29.0716 93.8386 29.6884 93.4499 30.1548C92.2526 31.5439 89.1583 32.4043 85.3747 32.4043C83.1668 32.4043 79.917 32.0622 78.0252 31.093L77.9993 31.0774C76.3148 30.2741 75.8172 29.3256 75.413 28.5637L74.9931 27.7707L69.6702 29.0457L70.0019 30.0927C71.5361 34.9025 76.7916 37.3385 85.6235 37.3385C90.2053 37.3385 93.6157 36.5041 96.0414 34.7937C97.078 34.0628 97.8762 33.2025 98.3997 32.2592C99.0683 31.1033 99.4207 29.7869 99.4207 28.4548C99.4207 25.3554 97.5704 22.826 94.4606 21.691V21.7065Z" fill="#592C5F"/>
<path d="M119.184 15.036V10.4438H112.301V0L107.019 2.56041V10.4386H102.396V15.0308H107.019V26.1535C107.019 29.9631 107.107 32.4146 108.362 34.3686C109.605 36.3123 111.808 37.2971 114.923 37.2971C116.178 37.2971 117.173 37.1416 118.344 36.9394L119.189 36.7943V32.1659L118.033 32.3213C117.323 32.4146 116.68 32.4613 116.007 32.4613C112.487 32.4613 112.306 30.6887 112.306 25.5679V15.036H119.189H119.184Z" fill="#592C5F"/>
<path d="M150.728 14.2637C147.913 11.3197 143.798 9.72334 138.827 9.65596C133.795 9.57822 129.519 10.9362 126.45 13.5691C123.527 16.0829 121.915 19.6592 121.915 23.6501C121.915 27.3871 123.408 30.8234 126.113 33.3165C129.052 36.022 133.204 37.4525 138.122 37.4525C147.602 37.4525 154.48 31.7097 154.48 23.8004C154.48 20.1879 153.148 16.7982 150.728 14.2689V14.2637ZM148.805 23.6035C148.805 29.1079 144.591 32.6634 138.076 32.6634C130.384 32.6634 127.642 28.0091 127.642 23.6553C127.642 18.1509 131.711 14.4969 137.993 14.3518C138.071 14.3518 138.148 14.3518 138.226 14.3518C145.534 14.3518 148.805 19.001 148.805 23.6087V23.6035Z" fill="#592C5F"/>
<path d="M30.4036 33.2336V10.4386H25.2673V12.6414C21.7843 9.97732 17.4668 9.65079 15.5698 9.65079C6.40104 9.65079 0 15.3262 0 23.4532C0 33.1195 7.49984 37.4525 14.9323 37.4525C17.954 37.4525 20.8254 36.8409 23.2355 35.6851C24.0803 35.286 24.7334 34.8662 25.2673 34.4412C25.2621 34.6796 25.288 34.9129 25.2724 35.1357L25.2362 36.5455C25.1221 38.655 24.7178 40.1529 23.5154 41.1947C21.8724 42.5785 18.1302 43.0709 15.4195 43.0709C13.1856 43.0709 10.7703 42.6511 9.42274 42.0395C7.41691 41.0755 7.27178 39.8678 7.14221 38.8053L7.03337 37.9086H1.60674L1.72595 39.0334C2.39456 45.4188 7.30288 46.7509 8.90962 47.1863C11.1331 47.7927 13.8594 48.0104 15.6683 48.0104C17.104 48.0104 22.059 47.8601 25.4176 45.9061C29.7091 43.4286 30.3052 39.4895 30.3881 36.1879L30.4036 34.7988C30.4192 34.265 30.4036 33.7311 30.4036 33.2439V33.2336ZM23.4636 29.5588C22.1937 30.9841 19.4312 32.5131 15.4765 32.5131C9.53158 32.5131 5.53547 28.8746 5.53547 23.4532C5.53547 18.0317 9.37609 14.6369 15.321 14.4451C15.4817 14.4399 15.6424 14.4347 15.8082 14.4347C19.7421 14.4347 22.6861 16.057 23.8523 17.6637C24.8163 18.9802 25.3294 20.9861 25.3294 23.4532C25.3294 25.9203 24.6971 28.1024 23.4739 29.5588H23.4636Z" fill="#592C5F"/>
</g>
<defs>
<clipPath id="clip0_2_6557">
<rect width="201.718" height="48" fill="white"/>
</clipPath>
</defs>
</svg>
